<svg width="102" height="70" viewBox="0 0 102 70" fill="none" xmlns="http://www.w3.org/2000/svg">
<path d="M28.568 69.792C24.216 69.792 21.528 68.0853 20.504 64.672L4.504 11.808C4.33333 11.3813 3.90667 10.3147 3.224 8.608C2.54133 6.816 1.688 5.36533 0.664 4.256C2.968 1.952 5.86933 0.799995 9.368 0.799995C11.7573 0.799995 13.72 1.312 15.256 2.336C16.8773 3.36 17.9013 4.85333 18.328 6.816L31.128 59.296L42.008 11.552C42.4347 8.736 42.648 6.98666 42.648 6.304C42.648 4.59733 42.3067 3.31733 41.624 2.464C44.44 1.35466 47.7253 0.799995 51.48 0.799995C57.1973 0.799995 60.6107 2.592 61.72 6.176L74.136 59.296L85.272 11.552C85.784 9.16267 86.04 7.41333 86.04 6.304C86.04 4.59733 85.6987 3.31733 85.016 2.464C86.3813 1.86666 87.6187 1.43999 88.728 1.184C89.8373 0.927996 91.2027 0.799995 92.824 0.799995C95.7253 0.799995 97.8587 1.35466 99.224 2.464C100.589 3.488 101.272 5.10933 101.272 7.328C101.272 9.888 100.717 12.576 99.608 15.392L81.944 67.488C78.36 69.024 74.9467 69.792 71.704 69.792C69.656 69.792 67.864 69.3653 66.328 68.512C64.8773 67.744 63.9387 66.464 63.512 64.672L51.48 15.904L39.576 67.488C35.9067 69.024 32.2373 69.792 28.568 69.792Z" fill="url(#paint0_linear_171_4)"/>
<defs>
<linearGradient id="paint0_linear_171_4" x1="-0.999999" y1="1" x2="78" y2="68" gradientUnits="userSpaceOnUse">
<stop stop-color="#E516C0"/>
<stop stop-color="#3403C3"/>
<stop offset="0.245" stop-color="#4100FD"/>
<stop offset="0.532874" stop-color="#B239CC"/>
<stop offset="1" stop-color="#F917C6"/>
</linearGradient>
</defs>
</svg>
